<?xml version="1.0" encoding="UTF-8"?>

<!-- Creator: CorelDRAW (OEM Version) -->
<svg xmlns="http://www.w3.org/2000/svg" xml:space="preserve" width="52.3248mm" height="17.9486mm" version="1.1" style="shape-rendering:geometricPrecision; text-rendering:geometricPrecision; image-rendering:optimizeQuality; fill-rule:evenodd; clip-rule:evenodd"
viewBox="0 0 1427.97 489.83"
 xmlns:xlink="http://www.w3.org/1999/xlink"
 xmlns:xodm="http://www.corel.com/coreldraw/odm/2003">

 <g id="Layer_x0020_1">
  <metadata id="CorelCorpID_0Corel-Layer"/>
  <g id="_3128987595392">
   <path fill="#373435" d="M530.56 200.17c-1.75,4.87 -3.7,8.57 -8.18,9.16 -0.78,0.1 -2.15,0.19 -2.82,0.19 -0.49,0 -0.88,0.2 -0.88,0.59 0,0.58 0.59,0.78 1.85,0.78 4.58,0 9.94,-0.29 11.01,-0.29 1.07,0 5.26,0.29 7.6,0.29 0.88,0 1.46,-0.19 1.46,-0.78 0,-0.39 -0.29,-0.59 -0.97,-0.59l-0.97 0c-1.66,0 -3.7,-0.88 -3.7,-2.82 0,-1.75 0.49,-4.09 1.36,-6.53l5.84 -17.24c0.2,-0.49 0.49,-0.78 0.97,-0.78l20.94 0c0.49,0 0.68,0.19 0.88,0.58l9.06 23.96c0.58,1.56 0,2.44 -0.58,2.63 -0.39,0.1 -0.68,0.29 -0.68,0.68 0,0.58 1.07,0.58 2.92,0.68 6.72,0.19 13.83,0.19 15.29,0.19 1.07,0 1.95,-0.19 1.95,-0.78 0,-0.49 -0.39,-0.59 -0.97,-0.59 -0.97,0 -2.44,-0.1 -3.9,-0.58 -2.05,-0.58 -4.87,-2.14 -8.38,-10.81 -5.94,-14.81 -21.23,-55.03 -22.69,-58.73 -1.17,-3.02 -1.56,-3.5 -2.14,-3.5 -0.58,0 -0.97,0.58 -2.14,3.8l-22.11 60.48zm13.64 -21.52c-0.29,0 -0.49,-0.19 -0.29,-0.68l8.57 -26.3c0.49,-1.46 0.97,-1.46 1.46,0l9.25 26.3c0.1,0.39 0.1,0.68 -0.39,0.68l-18.6 0zm70.81 -13.15c0,-15.19 0,-17.92 0.19,-21.04 0.19,-3.41 0.97,-5.07 3.8,-5.55 1.17,-0.19 2.53,-0.29 3.21,-0.29 0.39,0 0.78,-0.2 0.78,-0.58 0,-0.58 -0.49,-0.78 -1.56,-0.78 -2.92,0 -10.03,0.29 -10.52,0.29 -0.49,0 -6.62,-0.29 -11.01,-0.29 -1.07,0 -1.56,0.2 -1.56,0.78 0,0.39 0.39,0.58 0.78,0.58 0.88,0 2.53,0.1 3.31,0.29 3.21,0.68 3.99,2.24 4.19,5.55 0.2,3.12 0.2,5.85 0.2,21.04l0 17.14c0,9.35 0,17.05 -0.49,21.14 -0.39,2.82 -0.88,4.97 -2.82,5.36 -0.88,0.19 -2.04,0.39 -2.92,0.39 -0.59,0 -0.78,0.29 -0.78,0.59 0,0.58 0.49,0.78 1.56,0.78 1.46,0 3.61,-0.1 5.55,-0.19 1.95,0 3.61,-0.1 4,-0.1 2.82,0 5.84,0.1 9.93,0.29 4.09,0.1 9.16,0.29 16.17,0.29 5.16,0 5.46,-0.39 6.14,-2.63 0.78,-2.82 1.46,-8.67 1.46,-9.74 0,-1.07 -0.1,-1.46 -0.58,-1.46 -0.58,0 -0.78,0.49 -0.88,1.27 -0.29,1.85 -1.27,4.29 -2.53,5.85 -2.34,2.82 -6.62,2.92 -11.79,2.92 -7.59,0 -10.13,-0.68 -11.69,-2.24 -1.75,-1.75 -2.14,-7.99 -2.14,-22.3l0 -17.34zm47.53 -16.36c-1.46,-3.8 -2.63,-6.82 -2.63,-8.08 0,-0.68 0.2,-1.46 1.27,-1.95 0.88,-0.39 2.63,-0.49 3.7,-0.49 0.68,0 0.97,-0.2 0.97,-0.68 0,-0.49 -0.88,-0.68 -2.63,-0.68 -3.7,0 -8.08,0.29 -9.06,0.29 -1.17,0 -6.72,-0.29 -11.4,-0.29 -1.56,0 -2.53,0.1 -2.53,0.68 0,0.39 0.19,0.68 0.78,0.68 0.58,0 2.24,0 3.7,0.39 3.41,0.97 4.87,2.04 7.01,7.5l23.86 59.7c1.85,4.67 2.34,6.04 3.51,6.04 0.97,0 1.36,-1.56 4.09,-7.4 2.24,-4.77 6.62,-15.29 12.56,-29.51 4.97,-11.98 9.84,-23.67 10.91,-26.4 2.63,-6.62 4.09,-8.28 5.36,-9.16 1.85,-1.17 3.99,-1.17 4.67,-1.17 0.78,0 1.17,-0.2 1.17,-0.68 0,-0.49 -0.58,-0.68 -1.65,-0.68 -2.82,0 -7.01,0.29 -7.6,0.29 -1.17,0 -5.65,-0.29 -9.55,-0.29 -1.56,0 -2.14,0.2 -2.14,0.78 0,0.49 0.49,0.58 1.07,0.58 1.07,0 2.53,0 3.7,0.39 0.97,0.49 1.27,1.46 1.27,2.24 0,0.88 -0.39,2.24 -0.88,3.7 -2.15,7.01 -15.2,41 -20.84,54.05l-18.7 -49.87zm54.44 51.04c-1.75,4.87 -3.7,8.57 -8.18,9.16 -0.78,0.1 -2.15,0.19 -2.82,0.19 -0.49,0 -0.88,0.2 -0.88,0.59 0,0.58 0.59,0.78 1.85,0.78 4.58,0 9.94,-0.29 11.01,-0.29 1.07,0 5.26,0.29 7.6,0.29 0.88,0 1.46,-0.19 1.46,-0.78 0,-0.39 -0.29,-0.59 -0.97,-0.59l-0.97 0c-1.66,0 -3.7,-0.88 -3.7,-2.82 0,-1.75 0.49,-4.09 1.36,-6.53l5.84 -17.24c0.2,-0.49 0.49,-0.78 0.97,-0.78l20.94 0c0.49,0 0.68,0.19 0.88,0.58l9.06 23.96c0.58,1.56 0,2.44 -0.58,2.63 -0.39,0.1 -0.68,0.29 -0.68,0.68 0,0.58 1.07,0.58 2.92,0.68 6.72,0.19 13.83,0.19 15.29,0.19 1.07,0 1.95,-0.19 1.95,-0.78 0,-0.49 -0.39,-0.59 -0.97,-0.59 -0.97,0 -2.44,-0.1 -3.9,-0.58 -2.05,-0.58 -4.87,-2.14 -8.38,-10.81 -5.94,-14.81 -21.23,-55.03 -22.69,-58.73 -1.17,-3.02 -1.56,-3.5 -2.14,-3.5 -0.58,0 -0.97,0.58 -2.14,3.8l-22.11 60.48zm13.64 -21.52c-0.29,0 -0.49,-0.19 -0.29,-0.68l8.57 -26.3c0.49,-1.46 0.97,-1.46 1.46,0l9.25 26.3c0.1,0.39 0.1,0.68 -0.39,0.68l-18.6 0zm62.63 3.99c0,9.35 0,17.05 -0.49,21.14 -0.39,2.82 -0.88,4.97 -2.82,5.36 -0.88,0.19 -2.04,0.39 -2.92,0.39 -0.59,0 -0.78,0.29 -0.78,0.59 0,0.58 0.49,0.78 1.56,0.78 2.92,0 9.06,-0.29 9.16,-0.29 0.49,0 6.62,0.29 11.98,0.29 1.07,0 1.56,-0.29 1.56,-0.78 0,-0.29 -0.2,-0.59 -0.78,-0.59 -0.88,0 -3.02,-0.19 -4.38,-0.39 -2.92,-0.39 -3.51,-2.53 -3.8,-5.36 -0.49,-4.09 -0.49,-11.79 -0.49,-21.14l0 -2.34c0,-0.49 0.19,-0.78 0.68,-0.78l11.98 0.2c0.58,0 0.88,0.19 1.27,0.58 1.95,2.53 6.53,9.06 10.62,14.41 5.55,7.3 8.96,12.08 13.15,14.32 2.53,1.36 4.97,1.85 10.42,1.85l6.92 0c1.75,0 2.34,-0.19 2.34,-0.78 0,-0.29 -0.39,-0.59 -0.88,-0.59 -0.58,0 -1.95,0 -3.8,-0.29 -2.44,-0.39 -6.62,-1.46 -11.89,-7.01 -5.65,-6.04 -12.27,-14.71 -20.26,-24.94 8.77,-8.08 11.79,-15.29 11.79,-22.5 0,-6.72 -4.29,-11.49 -6.72,-13.25 -5.16,-3.7 -11.69,-4.28 -17.82,-4.28 -3.02,0 -10.42,0.29 -11.49,0.29 -0.49,0 -6.62,-0.29 -11.01,-0.29 -1.07,0 -1.56,0.2 -1.56,0.78 0,0.39 0.39,0.58 0.78,0.58 0.88,0 2.53,0.1 3.31,0.29 3.21,0.68 3.99,2.24 4.19,5.55 0.2,3.12 0.2,5.85 0.2,21.04l0 17.14zm7.79 -40.52c0,-0.59 0.29,-0.97 0.78,-1.17 0.97,-0.29 3.61,-0.58 6.53,-0.58 10.42,0 16.85,7.31 16.85,19.48 0,7.4 -2.53,12.66 -5.94,15 -2.24,1.56 -4.97,1.85 -7.31,1.85 -4.28,0 -8.77,-0.68 -10.23,-1.56 -0.49,-0.29 -0.68,-0.68 -0.68,-1.17l0 -31.85zm58.05 58.05c-1.75,4.87 -3.7,8.57 -8.18,9.16 -0.78,0.1 -2.15,0.19 -2.82,0.19 -0.49,0 -0.88,0.2 -0.88,0.59 0,0.58 0.59,0.78 1.85,0.78 4.58,0 9.94,-0.29 11.01,-0.29 1.07,0 5.26,0.29 7.6,0.29 0.88,0 1.46,-0.19 1.46,-0.78 0,-0.39 -0.29,-0.59 -0.97,-0.59l-0.97 0c-1.66,0 -3.7,-0.88 -3.7,-2.82 0,-1.75 0.49,-4.09 1.36,-6.53l5.84 -17.24c0.2,-0.49 0.49,-0.78 0.97,-0.78l20.94 0c0.49,0 0.68,0.19 0.88,0.58l9.06 23.96c0.58,1.56 0,2.44 -0.58,2.63 -0.39,0.1 -0.68,0.29 -0.68,0.68 0,0.58 1.07,0.58 2.92,0.68 6.72,0.19 13.83,0.19 15.29,0.19 1.07,0 1.95,-0.19 1.95,-0.78 0,-0.49 -0.39,-0.59 -0.97,-0.59 -0.97,0 -2.44,-0.1 -3.9,-0.58 -2.05,-0.58 -4.87,-2.14 -8.38,-10.81 -5.94,-14.81 -21.23,-55.03 -22.69,-58.73 -1.17,-3.02 -1.56,-3.5 -2.14,-3.5 -0.58,0 -0.97,0.58 -2.14,3.8l-22.11 60.48zm13.64 -21.52c-0.29,0 -0.49,-0.19 -0.29,-0.68l8.57 -26.3c0.49,-1.46 0.97,-1.46 1.46,0l9.25 26.3c0.1,0.39 0.1,0.68 -0.39,0.68l-18.6 0zm62.63 3.99c0,9.35 0,17.05 -0.49,21.14 -0.39,2.82 -0.88,4.97 -2.82,5.36 -0.88,0.19 -2.04,0.39 -2.92,0.39 -0.59,0 -0.78,0.29 -0.78,0.59 0,0.58 0.49,0.78 1.56,0.78 1.46,0 3.7,-0.19 5.65,-0.19 2.04,-0.1 3.7,-0.1 3.9,-0.1 0.49,0 3.8,0.29 8.08,0.58 4.19,0.29 9.35,0.58 13.54,0.58 16.56,0 25.32,-6.82 29.51,-11.2 5.46,-5.75 10.52,-15.19 10.52,-27.47 0,-11.59 -4.58,-19.67 -9.45,-24.74 -11.59,-11.98 -29.41,-11.1 -39.06,-11.1 -5.85,0 -11.98,0.29 -13.15,0.29 -0.49,0 -6.62,-0.29 -11.01,-0.29 -1.07,0 -1.56,0.2 -1.56,0.78 0,0.39 0.39,0.58 0.78,0.58 0.88,0 2.53,0.1 3.31,0.29 3.21,0.68 3.99,2.24 4.19,5.55 0.2,3.12 0.2,5.85 0.2,21.04l0 17.14zm8.18 -18.7c0,-7.5 0,-17.43 0.1,-20.75 0,-1.07 0.29,-1.56 1.17,-1.95 0.78,-0.39 4.38,-0.68 6.33,-0.68 11.59,0 22.69,1.36 31.85,11 3.99,4.19 9.35,12.18 9.35,24.55 0,8.96 -2.73,18.31 -7.79,23.28 -5.75,5.74 -14.12,9.06 -23.18,9.06 -11.49,0 -15.29,-2.05 -16.56,-3.9 -0.78,-1.07 -0.97,-4.97 -1.07,-7.4 -0.1,-1.85 -0.19,-10.81 -0.19,-21.14l0 -12.08zm70.03 10.03c0,17.53 11.1,38.28 37.79,38.28 23.47,0 38.86,-18.02 38.86,-39.84 0,-22.69 -16.36,-36.52 -38.27,-36.52 -26.88,0 -38.38,22.3 -38.38,38.08zm9.25 -2.73c0,-21.33 12.17,-32.04 28.44,-32.04 15.39,0 29.61,12.56 29.61,35.94 0,28.34 -18.12,33.41 -26.88,33.41 -17.53,0 -31.17,-14.61 -31.17,-37.3zm188.56 -32.73c-0.19,-1.85 -0.49,-2.63 -1.17,-2.63 -0.68,0 -1.07,0.68 -1.46,1.56l-28.63 61.16 -29.8 -61.26c-0.49,-1.07 -0.88,-1.46 -1.46,-1.46 -0.58,0 -0.97,0.68 -1.07,1.75l-7.01 63.5c-0.39,3.7 -0.68,7.5 -3.9,8.08 -1.46,0.29 -2.14,0.29 -2.92,0.29 -0.49,0 -0.97,0.2 -0.97,0.49 0,0.68 0.68,0.88 1.66,0.88 2.63,0 7.31,-0.29 8.18,-0.29 0.78,0 5.46,0.29 9.06,0.29 1.17,0 1.75,-0.19 1.75,-0.88 0,-0.29 -0.39,-0.49 -0.78,-0.49 -0.58,0 -2.04,-0.1 -3.7,-0.49 -1.46,-0.29 -2.53,-1.56 -2.53,-3.02 0,-1.66 0,-3.41 0.1,-4.97l3.89 -45.19 0.39 0c1.07,2.63 11.98,26.01 12.86,27.76 0.49,0.97 8.86,17.82 11.39,22.6 1.85,3.51 2.34,4.48 3.02,4.48 0.88,0 1.17,-0.88 3.21,-5.16l23.86 -50.65 0.29 0 4.68 50.55c0.19,1.75 0.1,3.41 -0.39,3.51 -0.49,0.1 -0.68,0.29 -0.68,0.68 0,0.49 0.49,0.78 2.73,0.97 3.61,0.29 14.12,0.39 16.27,0.39 1.17,0 2.05,-0.29 2.05,-0.88 0,-0.39 -0.29,-0.49 -0.78,-0.49 -0.97,0 -3.51,0 -6.33,-0.88 -4.19,-1.36 -4.87,-6.82 -5.26,-10.32l-6.53 -59.9zm36.33 44.12c0,9.35 0,17.05 -0.49,21.14 -0.39,2.82 -0.88,4.97 -2.82,5.36 -0.88,0.19 -2.04,0.39 -2.92,0.39 -0.59,0 -0.78,0.29 -0.78,0.59 0,0.58 0.49,0.78 1.56,0.78 1.46,0 3.7,-0.19 5.65,-0.19 2.04,-0.1 3.7,-0.1 3.9,-0.1 1.46,0 3.8,0.1 7.59,0.29 3.8,0.1 9.16,0.29 16.46,0.29 3.8,0 4.58,0 5.26,-2.53 0.49,-2.04 1.27,-8.67 1.27,-9.45 0,-0.68 0,-1.46 -0.58,-1.46 -0.49,0 -0.68,0.39 -0.88,1.46 -0.68,4 -1.85,5.94 -4.38,7.01 -2.53,1.07 -6.82,1.07 -9.35,1.07 -9.54,0 -11,-1.27 -11.3,-7.99 -0.1,-2.04 0,-13.34 0,-16.66l0 -8.57c0,-0.39 0.19,-0.68 0.68,-0.68 1.66,0 11.3,0.19 13.93,0.49 3.8,0.39 4.67,2.05 5.07,3.41 0.39,1.27 0.39,2.24 0.39,3.21 0,0.49 0.2,0.88 0.68,0.88 0.68,0 0.68,-1.07 0.68,-1.85 0,-0.68 0.19,-4.28 0.39,-6.23 0.29,-3.21 0.78,-4.87 0.78,-5.45 0,-0.59 -0.19,-0.78 -0.49,-0.78 -0.39,0 -0.78,0.49 -1.46,1.27 -0.88,0.97 -2.24,1.17 -4.58,1.36 -2.24,0.19 -14.22,0.19 -15.48,0.19 -0.49,0 -0.58,-0.29 -0.58,-0.97l0 -26.88c0,-0.68 0.19,-0.97 0.58,-0.97 1.07,0 11.69,0.1 13.34,0.29 5.26,0.58 6.23,1.75 6.92,3.31 0.49,1.17 0.58,2.82 0.58,3.5 0,0.78 0.19,1.27 0.78,1.27 0.39,0 0.58,-0.58 0.68,-1.07 0.2,-1.17 0.39,-5.46 0.49,-6.43 0.29,-2.73 0.78,-3.89 0.78,-4.58 0,-0.49 -0.1,-0.88 -0.39,-0.88 -0.49,0 -0.88,0.39 -1.36,0.49 -0.78,0.19 -2.34,0.39 -4.19,0.49 -2.24,0.1 -21.62,0.1 -22.3,0.1l-4 -0.19c-2.14,-0.1 -4.77,-0.1 -7.01,-0.1 -1.07,0 -1.56,0.2 -1.56,0.78 0,0.39 0.39,0.58 0.78,0.58 0.88,0 2.53,0.1 3.31,0.29 3.21,0.68 3.99,2.24 4.19,5.55 0.2,3.12 0.2,5.85 0.2,21.04l0 17.14zm67.59 -17.14c0,-15.19 0,-17.92 0.19,-21.04 0.19,-3.41 0.97,-5.07 3.8,-5.55 1.17,-0.19 2.53,-0.29 3.21,-0.29 0.39,0 0.78,-0.2 0.78,-0.58 0,-0.58 -0.49,-0.78 -1.56,-0.78 -2.92,0 -10.03,0.29 -10.52,0.29 -0.49,0 -6.62,-0.29 -11.01,-0.29 -1.07,0 -1.56,0.2 -1.56,0.78 0,0.39 0.39,0.58 0.78,0.58 0.88,0 2.53,0.1 3.31,0.29 3.21,0.68 3.99,2.24 4.19,5.55 0.2,3.12 0.2,5.85 0.2,21.04l0 17.14c0,9.35 0,17.05 -0.49,21.14 -0.39,2.82 -0.88,4.97 -2.82,5.36 -0.88,0.19 -2.04,0.39 -2.92,0.39 -0.59,0 -0.78,0.29 -0.78,0.59 0,0.58 0.49,0.78 1.56,0.78 1.46,0 3.61,-0.1 5.55,-0.19 1.95,0 3.61,-0.1 4,-0.1 2.82,0 5.84,0.1 9.93,0.29 4.09,0.1 9.16,0.29 16.17,0.29 5.16,0 5.46,-0.39 6.14,-2.63 0.78,-2.82 1.46,-8.67 1.46,-9.74 0,-1.07 -0.1,-1.46 -0.58,-1.46 -0.58,0 -0.78,0.49 -0.88,1.27 -0.29,1.85 -1.27,4.29 -2.53,5.85 -2.34,2.82 -6.62,2.92 -11.79,2.92 -7.59,0 -10.13,-0.68 -11.69,-2.24 -1.75,-1.75 -2.14,-7.99 -2.14,-22.3l0 -17.34zm36.03 8.47c0,17.53 11.1,38.28 37.79,38.28 23.47,0 38.86,-18.02 38.86,-39.84 0,-22.69 -16.36,-36.52 -38.27,-36.52 -26.88,0 -38.38,22.3 -38.38,38.08zm9.25 -2.73c0,-21.33 12.17,-32.04 28.44,-32.04 15.39,0 29.61,12.56 29.61,35.94 0,28.34 -18.12,33.41 -26.88,33.41 -17.53,0 -31.17,-14.61 -31.17,-37.3z"/>
   <path fill="#BD823B" d="M556.56 323.06c-1.75,4.87 -3.7,8.57 -8.18,9.16 -0.78,0.1 -2.15,0.19 -2.82,0.19 -0.49,0 -0.88,0.2 -0.88,0.59 0,0.58 0.59,0.78 1.85,0.78 4.58,0 9.94,-0.29 11.01,-0.29 1.07,0 5.26,0.29 7.6,0.29 0.88,0 1.46,-0.19 1.46,-0.78 0,-0.39 -0.29,-0.59 -0.97,-0.59l-0.97 0c-1.66,0 -3.7,-0.88 -3.7,-2.82 0,-1.75 0.49,-4.09 1.36,-6.53l5.84 -17.24c0.2,-0.49 0.49,-0.78 0.97,-0.78l20.94 0c0.49,0 0.68,0.19 0.88,0.58l9.06 23.96c0.58,1.56 0,2.44 -0.58,2.63 -0.39,0.1 -0.68,0.29 -0.68,0.68 0,0.58 1.07,0.58 2.92,0.68 6.72,0.19 13.83,0.19 15.29,0.19 1.07,0 1.95,-0.19 1.95,-0.78 0,-0.49 -0.39,-0.59 -0.97,-0.59 -0.97,0 -2.44,-0.1 -3.9,-0.58 -2.05,-0.58 -4.87,-2.14 -8.38,-10.81 -5.94,-14.81 -21.23,-55.03 -22.69,-58.73 -1.17,-3.02 -1.56,-3.5 -2.14,-3.5 -0.58,0 -0.97,0.58 -2.14,3.8l-22.11 60.48zm13.64 -21.52c-0.29,0 -0.49,-0.19 -0.29,-0.68l8.57 -26.3c0.49,-1.46 0.97,-1.46 1.46,0l9.25 26.3c0.1,0.39 0.1,0.68 -0.39,0.68l-18.6 0zm62.63 3.99c0,9.35 0,17.05 -0.49,21.14 -0.39,2.82 -0.88,4.97 -2.82,5.36 -0.88,0.19 -2.04,0.39 -2.92,0.39 -0.59,0 -0.78,0.29 -0.78,0.59 0,0.58 0.49,0.78 1.56,0.78 2.92,0 9.06,-0.29 9.16,-0.29 0.49,0 6.62,0.29 11.98,0.29 1.07,0 1.56,-0.29 1.56,-0.78 0,-0.29 -0.2,-0.59 -0.78,-0.59 -0.88,0 -3.02,-0.19 -4.38,-0.39 -2.92,-0.39 -3.51,-2.53 -3.8,-5.36 -0.49,-4.09 -0.49,-11.79 -0.49,-21.14l0 -2.34c0,-0.49 0.19,-0.78 0.68,-0.78l11.98 0.2c0.58,0 0.88,0.19 1.27,0.58 1.95,2.53 6.53,9.06 10.62,14.41 5.55,7.3 8.96,12.08 13.15,14.32 2.53,1.36 4.97,1.85 10.42,1.85l6.92 0c1.75,0 2.34,-0.19 2.34,-0.78 0,-0.29 -0.39,-0.59 -0.88,-0.59 -0.58,0 -1.95,0 -3.8,-0.29 -2.44,-0.39 -6.62,-1.46 -11.89,-7.01 -5.65,-6.04 -12.27,-14.71 -20.26,-24.94 8.77,-8.08 11.79,-15.29 11.79,-22.5 0,-6.72 -4.29,-11.49 -6.72,-13.25 -5.16,-3.7 -11.69,-4.28 -17.82,-4.28 -3.02,0 -10.42,0.29 -11.49,0.29 -0.49,0 -6.62,-0.29 -11.01,-0.29 -1.07,0 -1.56,0.2 -1.56,0.78 0,0.39 0.39,0.58 0.78,0.58 0.88,0 2.53,0.1 3.31,0.29 3.21,0.68 3.99,2.24 4.19,5.55 0.2,3.12 0.2,5.85 0.2,21.04l0 17.14zm7.79 -40.52c0,-0.59 0.29,-0.97 0.78,-1.17 0.97,-0.29 3.61,-0.58 6.53,-0.58 10.42,0 16.85,7.31 16.85,19.48 0,7.4 -2.53,12.66 -5.94,15 -2.24,1.56 -4.97,1.85 -7.31,1.85 -4.28,0 -8.77,-0.68 -10.23,-1.56 -0.49,-0.29 -0.68,-0.68 -0.68,-1.17l0 -31.85zm125.74 75.87c15.78,8.77 28.34,13.05 40.13,13.05 14.41,0 25.32,-4.19 30.88,-6.72 0.58,-0.29 0.78,-0.58 0.78,-0.97 0,-0.29 -0.19,-0.58 -0.58,-0.58 -0.29,0 -0.78,0.2 -1.36,0.39 -6.72,2.73 -14.32,3.8 -19.19,3.8 -4.87,0 -19.67,-0.49 -41,-11.49l-19.97 -10.32c6.43,-4.19 17.24,-15.58 17.24,-32.72 0,-22.6 -16.36,-36.52 -38.27,-36.52 -26.88,0 -38.38,22.3 -38.38,38.08 0,17.53 11.1,38.28 38.08,38.28 5.16,0 11.79,-1.46 15.29,-3.31l16.36 9.06zm-60.48 -46.75c0,-21.33 12.17,-32.04 28.44,-32.04 15.39,0 29.61,12.56 29.61,35.94 0,28.34 -18.12,33.41 -26.88,33.41 -17.53,0 -31.17,-14.61 -31.17,-37.3zm85.81 8.47c0,14.22 3.7,21.04 8.47,25.61 6.92,6.53 16.75,6.92 20.06,6.92 5.74,0 13.05,-0.97 20.06,-7.21 7.79,-6.92 8.96,-18.6 8.96,-29.12l0 -10.42c0,-15.19 0,-17.92 0.19,-21.04 0.2,-3.41 0.97,-4.97 3.61,-5.55 1.17,-0.19 1.75,-0.29 2.43,-0.29 0.39,0 0.78,-0.2 0.78,-0.58 0,-0.58 -0.49,-0.78 -1.56,-0.78 -2.92,0 -7.5,0.29 -8.18,0.29 -0.59,0 -5.94,-0.29 -10.32,-0.29 -1.07,0 -1.56,0.2 -1.56,0.78 0,0.39 0.39,0.58 0.78,0.58 0.88,0 2.53,0.1 3.31,0.29 3.21,0.68 4,2.24 4.19,5.55 0.19,3.12 0.19,5.85 0.19,21.04l0 12.17c0,10.03 -1.17,18.31 -5.65,23.86 -3.51,4.19 -9.35,7.01 -15.29,7.01 -5.55,0 -9.93,-0.88 -14.71,-5.36 -4.19,-4 -7.3,-10.03 -7.3,-24.06l0 -13.63c0,-15.19 0,-17.92 0.19,-21.04 0.19,-3.41 0.97,-5.16 3.6,-5.55 1.17,-0.19 1.75,-0.29 2.44,-0.29 0.39,0 0.78,-0.2 0.78,-0.58 0,-0.58 -0.49,-0.78 -1.56,-0.78 -2.92,0 -8.77,0.29 -9.64,0.29 -0.88,0 -6.82,-0.29 -11.2,-0.29 -1.07,0 -1.56,0.2 -1.56,0.78 0,0.39 0.39,0.58 0.78,0.58 0.88,0 2.53,0.1 3.31,0.29 3.21,0.68 3.99,2.24 4.19,5.55 0.2,3.12 0.2,5.85 0.2,21.04l0 14.22zm94.67 -14.22c0,-15.19 0,-17.92 0.19,-21.04 0.19,-3.41 0.97,-5.07 3.6,-5.55 1.17,-0.19 1.75,-0.29 2.44,-0.29 0.39,0 0.78,-0.2 0.78,-0.58 0,-0.58 -0.49,-0.78 -1.56,-0.78 -2.92,0 -9.06,0.29 -9.54,0.29 -0.49,0 -6.62,-0.29 -9.84,-0.29 -1.07,0 -1.56,0.2 -1.56,0.78 0,0.39 0.39,0.58 0.78,0.58 0.68,0 1.95,0.1 3.02,0.39 2.14,0.49 3.12,2.14 3.31,5.45 0.2,3.12 0.2,5.85 0.2,21.04l0 17.14c0,9.35 0,17.05 -0.49,21.14 -0.39,2.82 -0.88,4.97 -2.82,5.36 -0.88,0.19 -2.04,0.39 -2.92,0.39 -0.59,0 -0.78,0.29 -0.78,0.59 0,0.58 0.49,0.78 1.56,0.78 2.92,0 9.06,-0.29 9.55,-0.29 0.49,0 6.62,0.29 11.98,0.29 1.07,0 1.56,-0.29 1.56,-0.78 0,-0.29 -0.19,-0.59 -0.78,-0.59 -0.88,0 -3.02,-0.19 -4.38,-0.39 -2.92,-0.39 -3.51,-2.53 -3.8,-5.36 -0.49,-4.09 -0.49,-11.79 -0.49,-21.14l0 -17.14zm55.42 -24.06l12.26 0.19c9.33,0.2 11.67,2.43 11.96,5.36l0.1 1.07c0.1,1.36 0.29,1.65 0.78,1.65 0.41,0 0.7,-0.39 0.7,-1.27 0,-1.07 0.29,-7.79 0.29,-10.71 0,-0.59 0,-1.17 -0.49,-1.17 -0.39,0 -1.28,0.29 -2.75,0.49 -1.56,0.29 -3.8,0.49 -6.9,0.49l-36.51 0c-1.17,0 -4.87,-0.19 -7.69,-0.49 -2.63,-0.2 -3.61,-1.17 -4.29,-1.17 -0.39,0 -0.78,1.26 -0.97,1.85 -0.19,0.78 -2.14,9.15 -2.14,10.13 0,0.58 0.2,0.88 0.49,0.88 0.39,0 0.68,-0.19 0.97,-0.97 0.29,-0.68 0.58,-1.36 1.65,-3.02 1.56,-2.34 3.9,-3.02 9.94,-3.12l14.41 -0.19 0 41.2c0,9.35 0,17.05 -0.49,21.14 -0.39,2.82 -0.88,4.97 -2.82,5.36 -0.88,0.19 -2.04,0.39 -2.92,0.39 -0.58,0 -0.78,0.29 -0.78,0.59 0,0.58 0.49,0.78 1.56,0.78 2.92,0 9.06,-0.29 9.54,-0.29 0.49,0 6.61,0.29 11.96,0.29 1.07,0 1.56,-0.29 1.56,-0.78 0,-0.29 -0.19,-0.59 -0.78,-0.59 -0.88,0 -3.02,-0.19 -4.38,-0.39 -2.91,-0.39 -3.49,-2.53 -3.78,-5.36 -0.49,-4.09 -0.49,-11.79 -0.49,-21.14l0 -41.2zm46.56 41.2c0,9.35 0,17.05 -0.49,21.14 -0.39,2.82 -0.88,4.97 -2.82,5.36 -0.88,0.19 -2.04,0.39 -2.92,0.39 -0.59,0 -0.78,0.29 -0.78,0.59 0,0.58 0.49,0.78 1.56,0.78 1.46,0 3.7,-0.19 5.65,-0.19 2.04,-0.1 3.7,-0.1 3.9,-0.1 1.46,0 3.8,0.1 7.59,0.29 3.8,0.1 9.16,0.29 16.46,0.29 3.8,0 4.58,0 5.26,-2.53 0.49,-2.04 1.27,-8.67 1.27,-9.45 0,-0.68 0,-1.46 -0.58,-1.46 -0.49,0 -0.68,0.39 -0.88,1.46 -0.68,4 -1.85,5.94 -4.38,7.01 -2.53,1.07 -6.82,1.07 -9.35,1.07 -9.54,0 -11,-1.27 -11.3,-7.99 -0.1,-2.04 0,-13.34 0,-16.66l0 -8.57c0,-0.39 0.19,-0.68 0.68,-0.68 1.66,0 11.3,0.19 13.93,0.49 3.8,0.39 4.67,2.05 5.07,3.41 0.39,1.27 0.39,2.24 0.39,3.21 0,0.49 0.2,0.88 0.68,0.88 0.68,0 0.68,-1.07 0.68,-1.85 0,-0.68 0.19,-4.28 0.39,-6.23 0.29,-3.21 0.78,-4.87 0.78,-5.45 0,-0.59 -0.19,-0.78 -0.49,-0.78 -0.39,0 -0.78,0.49 -1.46,1.27 -0.88,0.97 -2.24,1.17 -4.58,1.36 -2.24,0.19 -14.22,0.19 -15.48,0.19 -0.49,0 -0.58,-0.29 -0.58,-0.97l0 -26.88c0,-0.68 0.19,-0.97 0.58,-0.97 1.07,0 11.69,0.1 13.34,0.29 5.26,0.58 6.23,1.75 6.92,3.31 0.49,1.17 0.58,2.82 0.58,3.5 0,0.78 0.19,1.27 0.78,1.27 0.39,0 0.58,-0.58 0.68,-1.07 0.2,-1.17 0.39,-5.46 0.49,-6.43 0.29,-2.73 0.78,-3.89 0.78,-4.58 0,-0.49 -0.1,-0.88 -0.39,-0.88 -0.49,0 -0.88,0.39 -1.36,0.49 -0.78,0.19 -2.34,0.39 -4.19,0.49 -2.24,0.1 -21.62,0.1 -22.3,0.1l-4 -0.19c-2.14,-0.1 -4.77,-0.1 -7.01,-0.1 -1.07,0 -1.56,0.2 -1.56,0.78 0,0.39 0.39,0.58 0.78,0.58 0.88,0 2.53,0.1 3.31,0.29 3.21,0.68 3.99,2.24 4.19,5.55 0.2,3.12 0.2,5.85 0.2,21.04l0 17.14zm92.23 29.61c6.23,0 13.63,-0.68 17.53,-2.24 1.75,-0.78 1.95,-0.97 2.53,-2.82 0.97,-3.31 2.14,-11.78 2.14,-12.47 0,-0.78 -0.19,-1.46 -0.68,-1.46 -0.58,0 -0.78,0.39 -0.97,1.46 -0.29,1.75 -1.56,6.04 -3.6,8.18 -3.9,3.99 -9.64,4.87 -16.95,4.87 -20.84,0 -35.16,-17.05 -35.16,-35.65 0,-9.93 1.66,-18.6 8.77,-25.42 3.41,-3.31 9.45,-7.11 22.4,-7.11 8.57,0 16.07,2.63 19.48,5.55 2.53,2.14 4.09,6.13 4.09,9.93 0,1.36 0.1,2.05 0.78,2.05 0.58,0 0.78,-0.58 0.88,-2.05 0.1,-1.46 0.1,-6.82 0.29,-10.03 0.19,-3.51 0.49,-4.67 0.49,-5.45 0,-0.58 -0.2,-0.97 -1.27,-1.07 -3.12,-0.19 -6.24,-0.78 -9.94,-1.46 -4.77,-0.88 -10.23,-1.17 -14.12,-1.17 -15,0 -23.86,4.58 -29.71,10.42 -8.67,8.67 -10.91,20.06 -10.91,26.59 0,9.25 2.34,20.36 11.78,28.83 7.7,6.92 17.53,10.52 32.14,10.52zm65.84 -70.81l12.26 0.19c9.33,0.2 11.67,2.43 11.96,5.36l0.1 1.07c0.1,1.36 0.29,1.65 0.78,1.65 0.41,0 0.7,-0.39 0.7,-1.27 0,-1.07 0.29,-7.79 0.29,-10.71 0,-0.59 0,-1.17 -0.49,-1.17 -0.39,0 -1.28,0.29 -2.75,0.49 -1.56,0.29 -3.8,0.49 -6.9,0.49l-36.51 0c-1.17,0 -4.87,-0.19 -7.69,-0.49 -2.63,-0.2 -3.61,-1.17 -4.29,-1.17 -0.39,0 -0.78,1.26 -0.97,1.85 -0.19,0.78 -2.14,9.15 -2.14,10.13 0,0.58 0.2,0.88 0.49,0.88 0.39,0 0.68,-0.19 0.97,-0.97 0.29,-0.68 0.58,-1.36 1.65,-3.02 1.56,-2.34 3.9,-3.02 9.94,-3.12l14.41 -0.19 0 41.2c0,9.35 0,17.05 -0.49,21.14 -0.39,2.82 -0.88,4.97 -2.82,5.36 -0.88,0.19 -2.04,0.39 -2.92,0.39 -0.58,0 -0.78,0.29 -0.78,0.59 0,0.58 0.49,0.78 1.56,0.78 2.92,0 9.06,-0.29 9.54,-0.29 0.49,0 6.61,0.29 11.96,0.29 1.07,0 1.56,-0.29 1.56,-0.78 0,-0.29 -0.19,-0.59 -0.78,-0.59 -0.88,0 -3.02,-0.19 -4.38,-0.39 -2.91,-0.39 -3.49,-2.53 -3.78,-5.36 -0.49,-4.09 -0.49,-11.79 -0.49,-21.14l0 -41.2zm40.91 38.28c0,14.22 3.7,21.04 8.47,25.61 6.92,6.53 16.75,6.92 20.06,6.92 5.74,0 13.05,-0.97 20.06,-7.21 7.79,-6.92 8.96,-18.6 8.96,-29.12l0 -10.42c0,-15.19 0,-17.92 0.19,-21.04 0.2,-3.41 0.97,-4.97 3.61,-5.55 1.17,-0.19 1.75,-0.29 2.43,-0.29 0.39,0 0.78,-0.2 0.78,-0.58 0,-0.58 -0.49,-0.78 -1.56,-0.78 -2.92,0 -7.5,0.29 -8.18,0.29 -0.59,0 -5.94,-0.29 -10.32,-0.29 -1.07,0 -1.56,0.2 -1.56,0.78 0,0.39 0.39,0.58 0.78,0.58 0.88,0 2.53,0.1 3.31,0.29 3.21,0.68 4,2.24 4.19,5.55 0.19,3.12 0.19,5.85 0.19,21.04l0 12.17c0,10.03 -1.17,18.31 -5.65,23.86 -3.51,4.19 -9.35,7.01 -15.29,7.01 -5.55,0 -9.93,-0.88 -14.71,-5.36 -4.19,-4 -7.3,-10.03 -7.3,-24.06l0 -13.63c0,-15.19 0,-17.92 0.19,-21.04 0.19,-3.41 0.97,-5.16 3.6,-5.55 1.17,-0.19 1.75,-0.29 2.44,-0.29 0.39,0 0.78,-0.2 0.78,-0.58 0,-0.58 -0.49,-0.78 -1.56,-0.78 -2.92,0 -8.77,0.29 -9.64,0.29 -0.88,0 -6.82,-0.29 -11.2,-0.29 -1.07,0 -1.56,0.2 -1.56,0.78 0,0.39 0.39,0.58 0.78,0.58 0.88,0 2.53,0.1 3.31,0.29 3.21,0.68 3.99,2.24 4.19,5.55 0.2,3.12 0.2,5.85 0.2,21.04l0 14.22zm86.49 2.92c0,9.35 0,17.05 -0.49,21.14 -0.39,2.82 -0.88,4.97 -2.82,5.36 -0.88,0.19 -2.04,0.39 -2.92,0.39 -0.59,0 -0.78,0.29 -0.78,0.59 0,0.58 0.49,0.78 1.56,0.78 2.92,0 9.06,-0.29 9.16,-0.29 0.49,0 6.62,0.29 11.98,0.29 1.07,0 1.56,-0.29 1.56,-0.78 0,-0.29 -0.2,-0.59 -0.78,-0.59 -0.88,0 -3.02,-0.19 -4.38,-0.39 -2.92,-0.39 -3.51,-2.53 -3.8,-5.36 -0.49,-4.09 -0.49,-11.79 -0.49,-21.14l0 -2.34c0,-0.49 0.19,-0.78 0.68,-0.78l11.98 0.2c0.58,0 0.88,0.19 1.27,0.58 1.95,2.53 6.53,9.06 10.62,14.41 5.55,7.3 8.96,12.08 13.15,14.32 2.53,1.36 4.97,1.85 10.42,1.85l6.92 0c1.75,0 2.34,-0.19 2.34,-0.78 0,-0.29 -0.39,-0.59 -0.88,-0.59 -0.58,0 -1.95,0 -3.8,-0.29 -2.44,-0.39 -6.62,-1.46 -11.89,-7.01 -5.65,-6.04 -12.27,-14.71 -20.26,-24.94 8.77,-8.08 11.79,-15.29 11.79,-22.5 0,-6.72 -4.29,-11.49 -6.72,-13.25 -5.16,-3.7 -11.69,-4.28 -17.82,-4.28 -3.02,0 -10.42,0.29 -11.49,0.29 -0.49,0 -6.62,-0.29 -11.01,-0.29 -1.07,0 -1.56,0.2 -1.56,0.78 0,0.39 0.39,0.58 0.78,0.58 0.88,0 2.53,0.1 3.31,0.29 3.21,0.68 3.99,2.24 4.19,5.55 0.2,3.12 0.2,5.85 0.2,21.04l0 17.14zm7.79 -40.52c0,-0.59 0.29,-0.97 0.78,-1.17 0.97,-0.29 3.61,-0.58 6.53,-0.58 10.42,0 16.85,7.31 16.85,19.48 0,7.4 -2.53,12.66 -5.94,15 -2.24,1.56 -4.97,1.85 -7.31,1.85 -4.28,0 -8.77,-0.68 -10.23,-1.56 -0.49,-0.29 -0.68,-0.68 -0.68,-1.17l0 -31.85zm58.05 58.05c-1.75,4.87 -3.7,8.57 -8.18,9.16 -0.78,0.1 -2.15,0.19 -2.82,0.19 -0.49,0 -0.88,0.2 -0.88,0.59 0,0.58 0.59,0.78 1.85,0.78 4.58,0 9.94,-0.29 11.01,-0.29 1.07,0 5.26,0.29 7.6,0.29 0.88,0 1.46,-0.19 1.46,-0.78 0,-0.39 -0.29,-0.59 -0.97,-0.59l-0.97 0c-1.66,0 -3.7,-0.88 -3.7,-2.82 0,-1.75 0.49,-4.09 1.36,-6.53l5.84 -17.24c0.2,-0.49 0.49,-0.78 0.97,-0.78l20.94 0c0.49,0 0.68,0.19 0.88,0.58l9.06 23.96c0.58,1.56 0,2.44 -0.58,2.63 -0.39,0.1 -0.68,0.29 -0.68,0.68 0,0.58 1.07,0.58 2.92,0.68 6.72,0.19 13.83,0.19 15.29,0.19 1.07,0 1.95,-0.19 1.95,-0.78 0,-0.49 -0.39,-0.59 -0.97,-0.59 -0.97,0 -2.44,-0.1 -3.9,-0.58 -2.05,-0.58 -4.87,-2.14 -8.38,-10.81 -5.94,-14.81 -21.23,-55.03 -22.69,-58.73 -1.17,-3.02 -1.56,-3.5 -2.14,-3.5 -0.58,0 -0.97,0.58 -2.14,3.8l-22.11 60.48zm13.64 -21.52c-0.29,0 -0.49,-0.19 -0.29,-0.68l8.57 -26.3c0.49,-1.46 0.97,-1.46 1.46,0l9.25 26.3c0.1,0.39 0.1,0.68 -0.39,0.68l-18.6 0z"/>
   <polygon fill="#BD823B" points="127.89,474.27 246.65,474.27 188.33,344.76 "/>
   <polygon fill="#373435" points="-0,489.83 172.04,2.4 278.06,0.96 240.46,120.17 354.95,489.83 270.12,489.83 190.68,223.27 96.59,489.83 "/>
   <polygon fill="#373435" points="501.5,489.58 371.96,114.79 332.29,0 290.92,131.76 405.13,489.58 "/>
  </g>
 </g>
</svg>
